<svg width="50" height="50" viewBox="0 0 50 50" fill="none" xmlns="http://www.w3.org/2000/svg">
<g clip-path="url(#clip0_57_1919)">
<path d="M17.5589 39.2L10.0995 43.2689C9.66178 43.5075 9.26838 43.8009 8.90234 44.1207C13.2514 47.7877 18.8656 50 24.9995 50C31.0882 50 36.6665 47.8207 41.0033 44.2038C40.6033 43.866 40.1693 43.5623 39.6882 43.3226L31.7005 39.3292C30.6684 38.8132 30.0165 37.7585 30.0165 36.6047V33.4707C30.241 33.2151 30.4976 32.8868 30.7722 32.499C31.8608 30.9613 32.6844 29.2698 33.2552 27.4953C34.2797 27.1792 35.0344 26.233 35.0344 25.1085V21.7632C35.0344 21.0273 34.7071 20.3698 34.1986 19.9094V15.0736C34.1986 15.0736 35.192 7.5481 25.0005 7.5481C14.8089 7.5481 15.8023 15.0736 15.8023 15.0736V19.9094C15.2929 20.3698 14.9665 21.0273 14.9665 21.7632V25.1085C14.9665 25.9896 15.4297 26.7651 16.1231 27.2132C16.9589 30.8519 19.1476 33.4707 19.1476 33.4707V36.5273C19.1467 37.6406 18.5373 38.666 17.5589 39.2Z" fill="#D7D7D7"/>
<path d="M25.4273 0.00372279C11.6226 -0.232126 0.239574 10.7679 0.00372526 24.5726C-0.130237 32.3999 3.35844 39.4349 8.91316 44.1132C9.27637 43.7962 9.66599 43.5056 10.099 43.2698L17.5584 39.2009C18.5367 38.6669 19.1462 37.6415 19.1462 36.5264V33.4698C19.1462 33.4698 16.9566 30.8509 16.1217 27.2122C15.4292 26.7641 14.965 25.9896 14.965 25.1075V21.7622C14.965 21.0264 15.2924 20.3688 15.8009 19.9084V15.0726C15.8009 15.0726 14.8075 7.54712 24.999 7.54712C35.1905 7.54712 34.1971 15.0726 34.1971 15.0726V19.9084C34.7066 20.3688 35.033 21.0264 35.033 21.7622V25.1075C35.033 26.232 34.2783 27.1782 33.2537 27.4943C32.683 29.2688 31.8594 30.9603 30.7707 32.4981C30.4962 32.8858 30.2396 33.2141 30.015 33.4698V36.6037C30.015 37.7575 30.6669 38.8132 31.699 39.3283L39.6867 43.3216C40.166 43.5613 40.599 43.8641 40.9981 44.2009C46.3849 39.7084 49.865 32.9915 49.9943 25.4273C50.232 11.6226 39.233 0.239572 25.4273 0.00372279Z" fill="#F9F9F9"/>
</g>
<defs>
<clipPath id="clip0_57_1919">
<rect width="50" height="50" fill="white"/>
</clipPath>
</defs>
</svg>
