<svg width="85" height="13" viewBox="0 0 85 13" fill="none" xmlns="http://www.w3.org/2000/svg">
<g clip-path="url(#clip0_57_1705)">
<path d="M10.1051 12.4019L10.1054 11.9019C10.0838 11.9019 10.0626 11.8966 10.0435 11.8866L10.0428 11.8862L6.7197 10.1393L6.48705 10.017L6.2544 10.1393L2.93251 11.8856C2.93239 11.8856 2.93226 11.8857 2.93213 11.8858C2.91015 11.8971 2.88543 11.9022 2.86074 11.9004C2.8359 11.8985 2.81207 11.8898 2.79193 11.8752L2.4978 12.2795L2.79193 11.8752C2.77179 11.8605 2.75614 11.8405 2.74675 11.8175L2.28369 12.0061L2.74674 11.8175C2.73737 11.7944 2.73459 11.7693 2.73872 11.7448C2.73873 11.7447 2.73874 11.7447 2.73875 11.7446L3.37238 8.0452L3.41674 7.78615L3.22853 7.60272L0.540308 4.98274C0.54026 4.98269 0.540211 4.98264 0.540163 4.98259C0.522387 4.96518 0.50982 4.94316 0.503874 4.919C0.497913 4.89477 0.498846 4.86936 0.50657 4.84563C0.514294 4.82191 0.528501 4.80082 0.547583 4.78474C0.566665 4.76867 0.589863 4.75826 0.614557 4.75467L0.614771 4.75464L4.32952 4.21433L4.58959 4.1765L4.70591 3.94085L6.36747 0.574659L6.36751 0.574572C6.37856 0.552189 6.39564 0.533342 6.41684 0.520163C6.43804 0.506984 6.4625 0.5 6.48746 0.5C6.51242 0.5 6.53688 0.506984 6.55808 0.520163C6.57928 0.533342 6.59636 0.552189 6.60741 0.574574L6.60745 0.574659L8.26901 3.94085L8.38533 4.1765L8.6454 4.21433L12.3598 4.75459C12.3598 4.7546 12.3599 4.7546 12.3599 4.75461C12.3846 4.75823 12.4077 4.76866 12.4267 4.78472C12.4458 4.8008 12.46 4.8219 12.4677 4.84562C12.4754 4.86934 12.4763 4.89474 12.4703 4.91896C12.4644 4.94317 12.4517 4.96523 12.4339 4.98266L9.74633 7.60277L9.55818 7.7862L9.60254 8.0452L10.2363 11.7453L10.2363 11.7455C10.2396 11.7647 10.2387 11.7844 10.2336 11.8032C10.2285 11.822 10.2194 11.8394 10.2068 11.8543C10.1943 11.8692 10.1786 11.8812 10.161 11.8894C10.1433 11.8976 10.1241 11.9019 10.1046 11.9019L10.1051 12.4019ZM10.1051 12.4019C10.1974 12.4018 10.2885 12.3816 10.3721 12.3426C10.4557 12.3037 10.5298 12.2469 10.5893 12.1764C10.6487 12.1058 10.692 12.0231 10.7161 11.9341C10.7403 11.8451 10.7447 11.7518 10.7291 11.6609L6.48705 10.5819L9.81018 12.3288C9.90109 12.3767 10.0023 12.4018 10.1051 12.4019Z" fill="#E026EE" stroke="#E026EE"/>
</g>
<g clip-path="url(#clip1_57_1705)">
<path d="M28.1051 12.4019L28.1054 11.9019C28.0838 11.9019 28.0626 11.8966 28.0435 11.8866L28.0428 11.8862L24.7197 10.1393L24.4871 10.017L24.2544 10.1393L20.9325 11.8856C20.9324 11.8856 20.9323 11.8857 20.9321 11.8858C20.9101 11.8971 20.8854 11.9022 20.8607 11.9004C20.8359 11.8985 20.8121 11.8898 20.7919 11.8752L20.4978 12.2795L20.7919 11.8752C20.7718 11.8605 20.7561 11.8405 20.7467 11.8175L20.2837 12.0061L20.7467 11.8175C20.7374 11.7944 20.7346 11.7693 20.7387 11.7448C20.7387 11.7447 20.7387 11.7447 20.7387 11.7446L21.3724 8.0452L21.4167 7.78615L21.2285 7.60272L18.5403 4.98274C18.5403 4.98269 18.5402 4.98264 18.5402 4.98259C18.5224 4.96518 18.5098 4.94316 18.5039 4.919C18.4979 4.89477 18.4988 4.86936 18.5066 4.84563C18.5143 4.82191 18.5285 4.80082 18.5476 4.78474C18.5667 4.76867 18.5899 4.75826 18.6146 4.75467L18.6148 4.75464L22.3295 4.21433L22.5896 4.1765L22.7059 3.94085L24.3675 0.574659L24.3675 0.574572C24.3786 0.552189 24.3956 0.533342 24.4168 0.520163C24.438 0.506984 24.4625 0.5 24.4875 0.5C24.5124 0.5 24.5369 0.506984 24.5581 0.520163C24.5793 0.533342 24.5964 0.552189 24.6074 0.574574L24.6074 0.574659L26.269 3.94085L26.3853 4.1765L26.6454 4.21433L30.3598 4.75459C30.3598 4.7546 30.3599 4.7546 30.3599 4.75461C30.3846 4.75823 30.4077 4.76866 30.4267 4.78472C30.4458 4.8008 30.46 4.8219 30.4677 4.84562C30.4754 4.86934 30.4763 4.89474 30.4703 4.91896C30.4644 4.94317 30.4517 4.96523 30.4339 4.98266L27.7463 7.60277L27.5582 7.7862L27.6025 8.0452L28.2363 11.7453L28.2363 11.7455C28.2396 11.7647 28.2387 11.7844 28.2336 11.8032C28.2285 11.822 28.2194 11.8394 28.2068 11.8543C28.1943 11.8692 28.1786 11.8812 28.161 11.8894C28.1433 11.8976 28.1241 11.9019 28.1046 11.9019L28.1051 12.4019ZM28.1051 12.4019C28.1974 12.4018 28.2885 12.3816 28.3721 12.3426C28.4557 12.3037 28.5298 12.2469 28.5893 12.1764C28.6487 12.1058 28.692 12.0231 28.7161 11.9341C28.7403 11.8451 28.7447 11.7518 28.7291 11.6609L24.4871 10.5819L27.8102 12.3288C27.9011 12.3767 28.0023 12.4018 28.1051 12.4019Z" fill="#E026EE" stroke="#E026EE"/>
</g>
<g clip-path="url(#clip2_57_1705)">
<path d="M46.1051 12.4019L46.1054 11.9019C46.0838 11.9019 46.0626 11.8966 46.0435 11.8866L46.0428 11.8862L42.7197 10.1393L42.4871 10.017L42.2544 10.1393L38.9325 11.8856C38.9324 11.8856 38.9323 11.8857 38.9321 11.8858C38.9101 11.8971 38.8854 11.9022 38.8607 11.9004C38.8359 11.8985 38.8121 11.8898 38.7919 11.8752L38.4978 12.2795L38.7919 11.8752C38.7718 11.8605 38.7561 11.8405 38.7467 11.8175L38.2837 12.0061L38.7467 11.8175C38.7374 11.7944 38.7346 11.7693 38.7387 11.7448C38.7387 11.7447 38.7387 11.7447 38.7387 11.7446L39.3724 8.0452L39.4167 7.78615L39.2285 7.60272L36.5403 4.98274C36.5403 4.98269 36.5402 4.98264 36.5402 4.98259C36.5224 4.96518 36.5098 4.94316 36.5039 4.919C36.4979 4.89477 36.4988 4.86936 36.5066 4.84563C36.5143 4.82191 36.5285 4.80082 36.5476 4.78474C36.5667 4.76867 36.5899 4.75826 36.6146 4.75467L36.6148 4.75464L40.3295 4.21433L40.5896 4.1765L40.7059 3.94085L42.3675 0.574659L42.3675 0.574572C42.3786 0.552189 42.3956 0.533342 42.4168 0.520163C42.438 0.506984 42.4625 0.5 42.4875 0.5C42.5124 0.5 42.5369 0.506984 42.5581 0.520163C42.5793 0.533342 42.5964 0.552189 42.6074 0.574574L42.6074 0.574659L44.269 3.94085L44.3853 4.1765L44.6454 4.21433L48.3598 4.75459C48.3598 4.7546 48.3599 4.7546 48.3599 4.75461C48.3846 4.75823 48.4077 4.76866 48.4267 4.78472C48.4458 4.8008 48.46 4.8219 48.4677 4.84562C48.4754 4.86934 48.4763 4.89474 48.4703 4.91896C48.4644 4.94317 48.4517 4.96523 48.4339 4.98266L45.7463 7.60277L45.5582 7.7862L45.6025 8.0452L46.2363 11.7453L46.2363 11.7455C46.2396 11.7647 46.2387 11.7844 46.2336 11.8032C46.2285 11.822 46.2194 11.8394 46.2068 11.8543C46.1943 11.8692 46.1786 11.8812 46.161 11.8894C46.1433 11.8976 46.1241 11.9019 46.1046 11.9019L46.1051 12.4019ZM46.1051 12.4019C46.1974 12.4018 46.2885 12.3816 46.3721 12.3426C46.4557 12.3037 46.5298 12.2469 46.5893 12.1764C46.6487 12.1058 46.692 12.0231 46.7161 11.9341C46.7403 11.8451 46.7447 11.7518 46.7291 11.6609L42.4871 10.5819L45.8102 12.3288C45.9011 12.3767 46.0023 12.4018 46.1051 12.4019Z" fill="#E026EE" stroke="#E026EE"/>
</g>
<g clip-path="url(#clip3_57_1705)">
<path d="M64.1051 12.4019L64.1054 11.9019C64.0838 11.9019 64.0626 11.8966 64.0435 11.8866L64.0428 11.8862L60.7197 10.1393L60.4871 10.017L60.2544 10.1393L56.9325 11.8856C56.9324 11.8856 56.9323 11.8857 56.9321 11.8858C56.9101 11.8971 56.8854 11.9022 56.8607 11.9004C56.8359 11.8985 56.8121 11.8898 56.7919 11.8752L56.4978 12.2795L56.7919 11.8752C56.7718 11.8605 56.7561 11.8405 56.7467 11.8175L56.2837 12.0061L56.7467 11.8175C56.7374 11.7944 56.7346 11.7693 56.7387 11.7448C56.7387 11.7447 56.7387 11.7447 56.7387 11.7446L57.3724 8.0452L57.4167 7.78615L57.2285 7.60272L54.5403 4.98274C54.5403 4.98269 54.5402 4.98264 54.5402 4.98259C54.5224 4.96518 54.5098 4.94316 54.5039 4.919C54.4979 4.89477 54.4988 4.86936 54.5066 4.84563C54.5143 4.82191 54.5285 4.80082 54.5476 4.78474C54.5667 4.76867 54.5899 4.75826 54.6146 4.75467L54.6148 4.75464L58.3295 4.21433L58.5896 4.1765L58.7059 3.94085L60.3675 0.574659L60.3675 0.574572C60.3786 0.552189 60.3956 0.533342 60.4168 0.520163C60.438 0.506984 60.4625 0.5 60.4875 0.5C60.5124 0.5 60.5369 0.506984 60.5581 0.520163C60.5793 0.533342 60.5964 0.552189 60.6074 0.574574L60.6074 0.574659L62.269 3.94085L62.3853 4.1765L62.6454 4.21433L66.3598 4.75459C66.3598 4.7546 66.3599 4.7546 66.3599 4.75461C66.3846 4.75823 66.4077 4.76866 66.4267 4.78472C66.4458 4.8008 66.46 4.8219 66.4677 4.84562C66.4754 4.86934 66.4763 4.89474 66.4703 4.91896C66.4644 4.94317 66.4517 4.96523 66.4339 4.98266L63.7463 7.60277L63.5582 7.7862L63.6025 8.0452L64.2363 11.7453L64.2363 11.7455C64.2396 11.7647 64.2387 11.7844 64.2336 11.8032C64.2285 11.822 64.2194 11.8394 64.2068 11.8543C64.1943 11.8692 64.1786 11.8812 64.161 11.8894C64.1433 11.8976 64.1241 11.9019 64.1046 11.9019L64.1051 12.4019ZM64.1051 12.4019C64.1974 12.4018 64.2885 12.3816 64.3721 12.3426C64.4557 12.3037 64.5298 12.2469 64.5893 12.1764C64.6487 12.1058 64.692 12.0231 64.7161 11.9341C64.7403 11.8451 64.7447 11.7518 64.7291 11.6609L60.4871 10.5819L63.8102 12.3288C63.9011 12.3767 64.0023 12.4018 64.1051 12.4019Z" fill="#E026EE" stroke="#E026EE"/>
</g>
<g clip-path="url(#clip4_57_1705)">
<path d="M82.1051 12.4019L82.1054 11.9019C82.0838 11.9019 82.0626 11.8966 82.0435 11.8866L82.0428 11.8862L78.7197 10.1393L78.4871 10.017L78.2544 10.1393L74.9325 11.8856C74.9324 11.8856 74.9323 11.8857 74.9321 11.8858C74.9101 11.8971 74.8854 11.9022 74.8607 11.9004C74.8359 11.8985 74.8121 11.8898 74.7919 11.8752L74.4978 12.2795L74.7919 11.8752C74.7718 11.8605 74.7561 11.8405 74.7467 11.8175L74.2837 12.0061L74.7467 11.8175C74.7374 11.7944 74.7346 11.7693 74.7387 11.7448C74.7387 11.7447 74.7387 11.7447 74.7387 11.7446L75.3724 8.0452L75.4167 7.78615L75.2285 7.60272L72.5403 4.98274C72.5403 4.98269 72.5402 4.98264 72.5402 4.98259C72.5224 4.96518 72.5098 4.94316 72.5039 4.919C72.4979 4.89477 72.4988 4.86936 72.5066 4.84563C72.5143 4.82191 72.5285 4.80082 72.5476 4.78474C72.5667 4.76867 72.5899 4.75826 72.6146 4.75467L72.6148 4.75464L76.3295 4.21433L76.5896 4.1765L76.7059 3.94085L78.3675 0.574659L78.3675 0.574572C78.3786 0.552189 78.3956 0.533342 78.4168 0.520163C78.438 0.506984 78.4625 0.5 78.4875 0.5C78.5124 0.5 78.5369 0.506984 78.5581 0.520163C78.5793 0.533342 78.5964 0.552189 78.6074 0.574574L78.6074 0.574659L80.269 3.94085L80.3853 4.1765L80.6454 4.21433L84.3598 4.75459C84.3598 4.7546 84.3599 4.7546 84.3599 4.75461C84.3846 4.75823 84.4077 4.76866 84.4267 4.78472C84.4458 4.8008 84.46 4.8219 84.4677 4.84562C84.4754 4.86934 84.4763 4.89474 84.4703 4.91896C84.4644 4.94317 84.4517 4.96523 84.4339 4.98266L81.7463 7.60277L81.5582 7.7862L81.6025 8.0452L82.2363 11.7453L82.2363 11.7455C82.2396 11.7647 82.2387 11.7844 82.2336 11.8032C82.2285 11.822 82.2194 11.8394 82.2068 11.8543C82.1943 11.8692 82.1786 11.8812 82.161 11.8894C82.1433 11.8976 82.1241 11.9019 82.1046 11.9019L82.1051 12.4019ZM82.1051 12.4019C82.1974 12.4018 82.2885 12.3816 82.3721 12.3426C82.4557 12.3037 82.5298 12.2469 82.5893 12.1764C82.6487 12.1058 82.692 12.0231 82.7161 11.9341C82.7403 11.8451 82.7447 11.7518 82.7291 11.6609L78.4871 10.5819L81.8102 12.3288C81.9011 12.3767 82.0023 12.4018 82.1051 12.4019ZM78.4261 9.74778C78.441 9.73995 78.4571 9.735 78.4737 9.73316L81.2826 7.7631C81.2826 7.76305 81.2826 7.76301 81.2826 7.76297C81.2789 7.74164 81.2806 7.71975 81.2873 7.69918C81.294 7.67857 81.3056 7.6599 81.3212 7.64478L81.3217 7.64429L83.3285 5.68616L84.0535 4.9788L83.0511 4.83346L80.2777 4.43134C80.2776 4.43133 80.2776 4.43132 80.2775 4.43131C80.2561 4.42816 80.2358 4.41987 80.2183 4.40715C80.2008 4.3944 80.1866 4.37757 80.177 4.35812L80.1769 4.35776L78.9354 1.84389L78.4869 0.93582L78.0387 1.844L76.798 4.35788L76.7979 4.35812C76.7883 4.37757 76.7741 4.3944 76.7566 4.40715C76.7391 4.41991 76.7187 4.42821 76.6972 4.43134L73.9229 4.83429L72.92 4.97995L73.6458 5.68719L75.6535 7.64369L75.6538 7.64397C75.6693 7.65909 75.6809 7.67775 75.6876 7.69836C75.6943 7.7189 75.696 7.74075 75.6924 7.76204C75.6924 7.76212 75.6924 7.7622 75.6923 7.76228L75.2179 10.5258L75.0465 11.5244L75.9434 11.0529L78.4256 9.74805L78.4261 9.74778Z" fill="#E026EE" stroke="#E026EE"/>
</g>
<defs>
<clipPath id="clip0_57_1705">
<rect width="13" height="13" fill="white"/>
</clipPath>
<clipPath id="clip1_57_1705">
<rect width="13" height="13" fill="white" transform="translate(18)"/>
</clipPath>
<clipPath id="clip2_57_1705">
<rect width="13" height="13" fill="white" transform="translate(36)"/>
</clipPath>
<clipPath id="clip3_57_1705">
<rect width="13" height="13" fill="white" transform="translate(54)"/>
</clipPath>
<clipPath id="clip4_57_1705">
<rect width="13" height="13" fill="white" transform="translate(72)"/>
</clipPath>
</defs>
</svg>
