<svg width="40" height="40" viewBox="0 0 40 40" fill="none" xmlns="http://www.w3.org/2000/svg">
<rect width="40" height="40" rx="4" fill="#F9F9F9"/>
<path d="M20 30C25.5228 30 30 25.5228 30 20C30 14.4772 25.5228 10 20 10C14.4772 10 10 14.4772 10 20C10 25.5228 14.4772 30 20 30Z" fill="url(#paint0_linear_0_2232)"/>
<path d="M14.5268 19.894C17.442 18.6239 19.386 17.7866 20.3586 17.382C23.1357 16.2269 23.7128 16.0263 24.0889 16.0196C24.1716 16.0182 24.3566 16.0387 24.4764 16.1359C24.5776 16.218 24.6054 16.3289 24.6187 16.4067C24.632 16.4846 24.6486 16.6619 24.6354 16.8004C24.485 18.3816 23.8338 22.2189 23.5025 23.9899C23.3623 24.7393 23.0863 24.9905 22.8191 25.0151C22.2384 25.0686 21.7974 24.6314 21.2349 24.2627C20.3548 23.6857 19.8576 23.3266 19.0033 22.7636C18.016 22.113 18.656 21.7554 19.2187 21.171C19.3659 21.018 21.9246 18.6907 21.9741 18.4796C21.9803 18.4532 21.986 18.3548 21.9276 18.3028C21.8691 18.2508 21.7828 18.2686 21.7205 18.2827C21.6322 18.3028 20.2262 19.2321 17.5025 21.0707C17.1034 21.3448 16.7419 21.4783 16.418 21.4713C16.061 21.4636 15.3741 21.2694 14.8635 21.1034C14.2373 20.8999 13.7396 20.7922 13.7829 20.4465C13.8055 20.2664 14.0535 20.0823 14.5268 19.894Z" fill="#F9F9F9"/>
<defs>
<linearGradient id="paint0_linear_0_2232" x1="20" y1="10" x2="20" y2="29.8516" gradientUnits="userSpaceOnUse">
<stop stop-color="#2AABEE"/>
<stop offset="1" stop-color="#229ED9"/>
</linearGradient>
</defs>
</svg>
