<svg width="40" height="40" viewBox="0 0 40 40" fill="none" xmlns="http://www.w3.org/2000/svg">
<rect width="40" height="40" rx="4" fill="#F9F9F9"/>
<path d="M29.5586 15.3184C29.4439 14.8944 29.2201 14.5079 28.9096 14.1974C28.599 13.8868 28.2125 13.663 27.7885 13.5483C26.2365 13.125 19.9899 13.125 19.9899 13.125C19.9899 13.125 13.7433 13.1378 12.1912 13.5611C11.7673 13.6758 11.3808 13.8996 11.0702 14.2102C10.7596 14.5207 10.5359 14.9072 10.4211 15.3312C9.95168 18.0889 9.76954 22.291 10.434 24.9384C10.5487 25.3624 10.7725 25.7489 11.083 26.0594C11.3936 26.37 11.7801 26.5938 12.2041 26.7085C13.7561 27.1318 20.0027 27.1318 20.0027 27.1318C20.0027 27.1318 26.2493 27.1318 27.8014 26.7085C28.2253 26.5938 28.6118 26.37 28.9224 26.0594C29.233 25.7489 29.4567 25.3624 29.5715 24.9384C30.0666 22.1768 30.2192 17.9774 29.5586 15.3184Z" fill="#FF0000"/>
<path d="M18.002 23.1299L23.184 20.1284L18.002 17.127V23.1299Z" fill="#F9F9F9"/>
</svg>
