<svg width="20" height="20" viewBox="0 0 20 20" fill="none" xmlns="http://www.w3.org/2000/svg">
<path fill-rule="evenodd" clip-rule="evenodd" d="M20 10C20 15.5228 15.5228 20 10 20C4.47715 20 0 15.5228 0 10C0 4.47715 4.47715 0 10 0C15.5228 0 20 4.47715 20 10ZM10.3583 7.3824C9.38569 7.78696 7.44177 8.6243 4.52657 9.8944C4.05318 10.0827 3.8052 10.2668 3.78263 10.4469C3.74448 10.7512 4.12559 10.8711 4.64455 11.0342C4.71515 11.0564 4.78829 11.0794 4.86327 11.1038C5.37385 11.2698 6.06068 11.4639 6.41773 11.4717C6.74161 11.4787 7.1031 11.3451 7.50219 11.0711C10.226 9.23247 11.632 8.30314 11.7202 8.28311C11.7825 8.26897 11.8688 8.2512 11.9273 8.30317C11.9858 8.35514 11.98 8.45356 11.9738 8.47997C11.9361 8.64092 10.4401 10.0317 9.66591 10.7515C9.42457 10.9758 9.25338 11.135 9.21839 11.1713C9.13999 11.2528 9.06009 11.3298 8.9833 11.4038C8.50896 11.8611 8.15325 12.204 9.003 12.764C9.41135 13.0331 9.73811 13.2556 10.0641 13.4776C10.4201 13.72 10.7752 13.9619 11.2347 14.263C11.3517 14.3398 11.4635 14.4195 11.5724 14.4971C11.9867 14.7925 12.3589 15.0578 12.8188 15.0155C13.086 14.9909 13.362 14.7396 13.5022 13.9903C13.8335 12.2193 14.4847 8.38201 14.6352 6.80077C14.6484 6.66224 14.6318 6.48494 14.6184 6.40711C14.6051 6.32928 14.5773 6.21839 14.4761 6.1363C14.3563 6.03908 14.1713 6.01858 14.0886 6.01996C13.7125 6.02666 13.1354 6.22731 10.3583 7.3824Z" fill="white"/>
</svg>
