<svg width="20" height="20" viewBox="0 0 20 20" fill="none" xmlns="http://www.w3.org/2000/svg">
<path fill-rule="evenodd" clip-rule="evenodd" d="M18.9096 4.19735C19.2201 4.50791 19.4439 4.89442 19.5586 5.31837C20.2192 7.97736 20.0666 12.1768 19.5715 14.9384C19.4567 15.3624 19.233 15.7489 18.9224 16.0594C18.6118 16.37 18.2253 16.5938 17.8014 16.7085C16.2493 17.1318 10.0027 17.1318 10.0027 17.1318C10.0027 17.1318 3.75609 17.1318 2.20405 16.7085C1.7801 16.5938 1.39359 16.37 1.08303 16.0594C0.772467 15.7489 0.548682 15.3624 0.433962 14.9384C-0.230463 12.291 -0.0483238 8.08895 0.421135 5.3312C0.535856 4.90724 0.75964 4.52074 1.0702 4.21018C1.38077 3.89961 1.76727 3.67583 2.19122 3.56111C3.74326 3.13783 9.98988 3.125 9.98988 3.125C9.98988 3.125 16.2365 3.125 17.7885 3.54828C18.2125 3.663 18.599 3.88679 18.9096 4.19735ZM13.1837 10.1284L8.00171 13.1299V7.12695L13.1837 10.1284Z" fill="white"/>
</svg>
