<svg width="20" height="20" viewBox="0 0 20 20" fill="none" xmlns="http://www.w3.org/2000/svg">
<path d="M10 0C4.47301 0 0 4.4725 0 10C0 15.5269 4.4725 20 10 20C15.527 20 20 15.5275 20 10C20 4.47309 15.5275 0 10 0ZM10 18.6046C5.25539 18.6046 1.39535 14.7446 1.39535 10C1.39535 5.25535 5.25539 1.39535 10 1.39535C14.7446 1.39535 18.6046 5.25535 18.6046 10C18.6046 14.7446 14.7446 18.6046 10 18.6046Z" fill="#BCBCBC"/>
<path d="M9.99988 8.33582C9.40754 8.33582 8.98633 8.58597 8.98633 8.95453V13.9696C8.98633 14.2855 9.40754 14.6014 9.99988 14.6014C10.5659 14.6014 11.0266 14.2855 11.0266 13.9696V8.95445C11.0266 8.58593 10.5659 8.33582 9.99988 8.33582Z" fill="#BCBCBC"/>
<path d="M10.0002 5.24255C9.39473 5.24255 8.9209 5.67693 8.9209 6.17712C8.9209 6.67736 9.39477 7.1249 10.0002 7.1249C10.5926 7.1249 11.0665 6.67736 11.0665 6.17712C11.0665 5.67693 10.5925 5.24255 10.0002 5.24255Z" fill="#BCBCBC"/>
</svg>
