<svg width="15" height="16" viewBox="0 0 15 16" fill="none" xmlns="http://www.w3.org/2000/svg">
<g clip-path="url(#clip0_0_1453)">
<path d="M8.75358 9.69017C8.3804 9.93896 7.94692 10.0705 7.5 10.0705C7.05311 10.0705 6.61963 9.93896 6.24645 9.69017L0.099873 5.59232C0.0657715 5.56959 0.0325488 5.54589 0 5.52151V12.2363C0 13.0061 0.624756 13.6171 1.38085 13.6171H13.6191C14.389 13.6171 15 12.9924 15 12.2363V5.52148C14.9674 5.54592 14.9341 5.56968 14.8999 5.59244L8.75358 9.69017Z" fill="white"/>
<path d="M0.587402 4.86109L6.73397 8.95896C6.96665 9.11409 7.23331 9.19164 7.49997 9.19164C7.76666 9.19164 8.03335 9.11406 8.26603 8.95896L14.4126 4.86109C14.7804 4.61603 15 4.20587 15 3.76319C15 3.00203 14.3808 2.38281 13.6196 2.38281H1.38038C0.619248 2.38284 0 3.00206 0 3.76393C0 4.20587 0.219609 4.61603 0.587402 4.86109Z" fill="white"/>
</g>
<defs>
<clipPath id="clip0_0_1453">
<rect width="15" height="15" fill="white" transform="translate(0 0.5)"/>
</clipPath>
</defs>
</svg>
