<svg width="21" height="20" viewBox="0 0 21 20" fill="none" xmlns="http://www.w3.org/2000/svg">
<path d="M10.5 20C16.0228 20 20.5 15.5228 20.5 10C20.5 4.47715 16.0228 0 10.5 0C4.97715 0 0.5 4.47715 0.5 10C0.5 15.5228 4.97715 20 10.5 20Z" fill="white"/>
<path d="M5.02684 9.89453C7.94204 8.62442 9.88597 7.78708 10.8586 7.38253C13.6357 6.22743 14.2128 6.02678 14.5889 6.02008C14.6716 6.0187 14.8566 6.0392 14.9764 6.13642C15.0776 6.21851 15.1054 6.3294 15.1187 6.40723C15.132 6.48506 15.1486 6.66236 15.1354 6.8009C14.985 8.38213 14.3338 12.2194 14.0025 13.9904C13.8623 14.7398 13.5863 14.991 13.3191 15.0156C12.7384 15.0691 12.2974 14.6318 11.7349 14.2631C10.8548 13.6862 10.3576 13.3271 9.50327 12.7641C8.51596 12.1135 9.15599 11.7559 9.71866 11.1715C9.86591 11.0185 12.4246 8.69121 12.4741 8.48009C12.4803 8.45369 12.486 8.35526 12.4276 8.30329C12.3691 8.25132 12.2828 8.26909 12.2205 8.28323C12.1322 8.30326 10.7262 9.23259 8.00246 11.0712C7.60337 11.3453 7.24188 11.4788 6.918 11.4718C6.56095 11.4641 5.87413 11.2699 5.36355 11.1039C4.73729 10.9004 4.23956 10.7927 4.2829 10.447C4.30548 10.2669 4.55346 10.0828 5.02684 9.89453Z" fill="#290C4F"/>
</svg>
