<svg width="15" height="16" viewBox="0 0 15 16" fill="none" xmlns="http://www.w3.org/2000/svg">
<path fill-rule="evenodd" clip-rule="evenodd" d="M10.8875 9.48886C10.7017 9.3959 9.78832 8.94658 9.618 8.88462C9.44772 8.82265 9.3239 8.79166 9.20004 8.97758C9.07619 9.16351 8.72015 9.58183 8.61176 9.70579C8.5034 9.82972 8.39505 9.84525 8.20926 9.75226C8.02348 9.65933 7.42488 9.46319 6.71527 8.83044C6.16299 8.33802 5.79014 7.72977 5.68175 7.54384C5.57339 7.35792 5.67021 7.25742 5.76324 7.16481C5.84678 7.08163 5.94899 6.94792 6.04189 6.83945C6.13478 6.73099 6.16574 6.65353 6.22767 6.5296C6.2896 6.40564 6.25863 6.29717 6.21217 6.20421C6.16574 6.11125 5.79421 5.19711 5.63939 4.82525C5.4886 4.46311 5.33543 4.51211 5.22139 4.50644C5.11314 4.50104 4.98918 4.4999 4.86532 4.4999C4.74147 4.4999 4.54022 4.5464 4.3699 4.73229C4.19961 4.91822 3.71969 5.36757 3.71969 6.28167C3.71969 7.19581 4.3854 8.07895 4.47829 8.20291C4.57118 8.32687 5.78832 10.2028 7.65195 11.0072C8.09519 11.1986 8.44126 11.3129 8.71105 11.3985C9.15611 11.5398 9.56111 11.5199 9.88122 11.4721C10.2381 11.4187 10.9804 11.0227 11.1352 10.5889C11.29 10.1551 11.29 9.78326 11.2436 9.70579C11.1971 9.62833 11.0733 9.58183 10.8875 9.48886ZM7.4977 14.1158H7.4952C6.38628 14.1153 5.29864 13.8175 4.34983 13.2547L4.12415 13.1207L1.7852 13.7341L2.40952 11.4544L2.26256 11.2207C1.64395 10.237 1.31724 9.10015 1.3177 7.93284C1.31906 4.52658 4.09136 1.75535 7.50016 1.75535C9.15079 1.75599 10.7024 2.39945 11.8692 3.56716C13.036 4.7349 13.6782 6.2871 13.6775 7.93784C13.6762 11.3444 10.9039 14.1158 7.4977 14.1158ZM12.7572 2.67984C11.3535 1.27489 9.48661 0.500786 7.49763 0.5C3.39944 0.5 0.0639996 3.83415 0.0623568 7.93238C0.0618211 9.2424 0.404176 10.5212 1.05481 11.6483L0 15.5L3.94154 14.4664C5.02754 15.0586 6.25024 15.3706 7.49466 15.3711H7.4977H7.49773C11.5955 15.3711 14.9313 12.0366 14.9329 7.9383C14.9337 5.95225 14.161 4.08476 12.7572 2.67984" fill="white"/>
</svg>
