<svg width="21" height="20" viewBox="0 0 21 20" fill="none" xmlns="http://www.w3.org/2000/svg">
<path d="M20.0586 5.31837C19.9439 4.89442 19.7201 4.50791 19.4096 4.19735C19.099 3.88679 18.7125 3.663 18.2885 3.54828C16.7365 3.125 10.4899 3.125 10.4899 3.125C10.4899 3.125 4.24326 3.13783 2.69122 3.56111C2.26727 3.67583 1.88077 3.89961 1.5702 4.21018C1.25964 4.52074 1.03586 4.90724 0.921135 5.3312C0.451676 8.08895 0.269537 12.291 0.933962 14.9384C1.04868 15.3624 1.27247 15.7489 1.58303 16.0594C1.89359 16.37 2.2801 16.5938 2.70405 16.7085C4.25609 17.1318 10.5027 17.1318 10.5027 17.1318C10.5027 17.1318 16.7493 17.1318 18.3014 16.7085C18.7253 16.5938 19.1118 16.37 19.4224 16.0594C19.733 15.7489 19.9567 15.3624 20.0715 14.9384C20.5666 12.1768 20.7192 7.97736 20.0586 5.31837Z" fill="white"/>
<path d="M8.50195 13.1299L13.684 10.1284L8.50195 7.12695V13.1299Z" fill="#290C4F"/>
</svg>
