<svg width="20" height="20" viewBox="0 0 20 20" fill="none" xmlns="http://www.w3.org/2000/svg">
<path d="M1.03331 20C0.769865 20 0.506416 19.8998 0.306255 19.6982C-0.0955745 19.2963 -0.0955745 18.6449 0.306255 18.2431L18.2479 0.301372C18.6498 -0.100457 19.3012 -0.100457 19.7031 0.301372C20.1049 0.703201 20.1049 1.35467 19.7031 1.75675L1.76163 19.6982C1.55996 19.8986 1.29651 20 1.03331 20Z" fill="black"/>
<path d="M18.9762 20C18.7128 20 18.4496 19.8998 18.2492 19.6982L0.306255 1.75675C-0.0955745 1.35467 -0.0955745 0.703201 0.306255 0.301372C0.708084 -0.100457 1.35955 -0.100457 1.76163 0.301372L19.7031 18.2431C20.1049 18.6449 20.1049 19.2963 19.7031 19.6982C19.5014 19.8986 19.2382 20 18.9762 20Z" fill="black"/>
</svg>
