<svg width="16" height="16" viewBox="0 0 16 16" fill="none" xmlns="http://www.w3.org/2000/svg">
<g clip-path="url(#clip0_1_20299)">
<path d="M8.28223 9.48828C9.11065 9.48828 9.78223 8.81671 9.78223 7.98828C9.78223 7.15985 9.11065 6.48828 8.28223 6.48828C7.4538 6.48828 6.78223 7.15985 6.78223 7.98828C6.78223 8.81671 7.4538 9.48828 8.28223 9.48828Z" fill="black"/>
<path d="M2.28223 9.48828C3.11065 9.48828 3.78223 8.81671 3.78223 7.98828C3.78223 7.15985 3.11065 6.48828 2.28223 6.48828C1.4538 6.48828 0.782227 7.15985 0.782227 7.98828C0.782227 8.81671 1.4538 9.48828 2.28223 9.48828Z" fill="black"/>
<path d="M14.2822 9.48828C15.1107 9.48828 15.7822 8.81671 15.7822 7.98828C15.7822 7.15985 15.1107 6.48828 14.2822 6.48828C13.4538 6.48828 12.7822 7.15985 12.7822 7.98828C12.7822 8.81671 13.4538 9.48828 14.2822 9.48828Z" fill="black"/>
<path d="M8.28223 15.4766C9.11065 15.4766 9.78223 14.805 9.78223 13.9766C9.78223 13.1481 9.11065 12.4766 8.28223 12.4766C7.4538 12.4766 6.78223 13.1481 6.78223 13.9766C6.78223 14.805 7.4538 15.4766 8.28223 15.4766Z" fill="black"/>
<path d="M2.28223 15.4766C3.11065 15.4766 3.78223 14.805 3.78223 13.9766C3.78223 13.1481 3.11065 12.4766 2.28223 12.4766C1.4538 12.4766 0.782227 13.1481 0.782227 13.9766C0.782227 14.805 1.4538 15.4766 2.28223 15.4766Z" fill="black"/>
<path d="M14.2822 15.4766C15.1107 15.4766 15.7822 14.805 15.7822 13.9766C15.7822 13.1481 15.1107 12.4766 14.2822 12.4766C13.4538 12.4766 12.7822 13.1481 12.7822 13.9766C12.7822 14.805 13.4538 15.4766 14.2822 15.4766Z" fill="black"/>
<path d="M8.28223 3.5C9.11065 3.5 9.78223 2.82843 9.78223 2C9.78223 1.17157 9.11065 0.5 8.28223 0.5C7.4538 0.5 6.78223 1.17157 6.78223 2C6.78223 2.82843 7.4538 3.5 8.28223 3.5Z" fill="black"/>
<path d="M2.28223 3.5C3.11065 3.5 3.78223 2.82843 3.78223 2C3.78223 1.17157 3.11065 0.5 2.28223 0.5C1.4538 0.5 0.782227 1.17157 0.782227 2C0.782227 2.82843 1.4538 3.5 2.28223 3.5Z" fill="black"/>
<path d="M14.2822 3.5C15.1107 3.5 15.7822 2.82843 15.7822 2C15.7822 1.17157 15.1107 0.5 14.2822 0.5C13.4538 0.5 12.7822 1.17157 12.7822 2C12.7822 2.82843 13.4538 3.5 14.2822 3.5Z" fill="black"/>
</g>
<defs>
<clipPath id="clip0_1_20299">
<rect width="15" height="15" fill="white" transform="translate(0.782227 0.5)"/>
</clipPath>
</defs>
</svg>
