<svg width="31" height="30" viewBox="0 0 31 30" fill="none" xmlns="http://www.w3.org/2000/svg">
<path d="M29.8379 7.97756C29.6659 7.34163 29.3302 6.76187 28.8643 6.29603C28.3985 5.83018 27.8187 5.4945 27.1828 5.32242C24.8548 4.6875 15.4848 4.6875 15.4848 4.6875C15.4848 4.6875 6.11489 4.70674 3.78684 5.34166C3.15091 5.51374 2.57115 5.84942 2.1053 6.31527C1.63946 6.78111 1.30378 7.36087 1.1317 7.9968C0.427514 12.1334 0.154305 18.4365 1.15094 22.4076C1.32302 23.0436 1.6587 23.6233 2.12454 24.0892C2.59039 24.555 3.17015 24.8907 3.80608 25.0628C6.13413 25.6977 15.5041 25.6977 15.5041 25.6977C15.5041 25.6977 24.874 25.6977 27.2021 25.0628C27.838 24.8907 28.4177 24.555 28.8836 24.0892C29.3494 23.6233 29.6851 23.0436 29.8572 22.4076C30.5999 18.2652 30.8288 11.966 29.8379 7.97756Z" fill="#FF0000"/>
<path d="M12.5029 19.6948L20.2759 15.1926L12.5029 10.6904V19.6948Z" fill="#F9F9F9"/>
</svg>
