<svg width="31" height="30" viewBox="0 0 31 30" fill="none" xmlns="http://www.w3.org/2000/svg">
<path d="M15.5 30C23.7843 30 30.5 23.2843 30.5 15C30.5 6.71573 23.7843 0 15.5 0C7.21573 0 0.5 6.71573 0.5 15C0.5 23.2843 7.21573 30 15.5 30Z" fill="url(#paint0_linear_0_1401)"/>
<path d="M7.28977 14.8415C11.6626 12.9364 14.5785 11.6804 16.0374 11.0735C20.2031 9.3409 21.0687 9.03993 21.6329 9.02988C21.7569 9.0278 22.0344 9.05855 22.2141 9.20438C22.3659 9.32752 22.4076 9.49386 22.4276 9.6106C22.4476 9.72735 22.4725 9.9933 22.4527 10.2011C22.2269 12.573 21.2502 18.3288 20.7532 20.9853C20.543 22.1094 20.129 22.4863 19.7281 22.5232C18.8571 22.6033 18.1956 21.9475 17.3519 21.3945C16.0317 20.5291 15.2859 19.9904 14.0044 19.1459C12.5235 18.1699 13.4835 17.6336 14.3275 16.7569C14.5484 16.5275 18.3864 13.0366 18.4607 12.7199C18.4699 12.6803 18.4786 12.5327 18.3909 12.4547C18.3032 12.3767 18.1737 12.4034 18.0803 12.4246C17.9479 12.4547 15.8389 13.8486 11.7532 16.6066C11.1546 17.0176 10.6123 17.2179 10.1265 17.2074C9.59094 17.1959 8.5607 16.9046 7.79483 16.6557C6.85545 16.3503 6.10886 16.1889 6.17387 15.6703C6.20773 15.4002 6.5797 15.1239 7.28977 14.8415Z" fill="#F9F9F9"/>
<defs>
<linearGradient id="paint0_linear_0_1401" x1="15.5" y1="0" x2="15.5" y2="29.7774" gradientUnits="userSpaceOnUse">
<stop stop-color="#2AABEE"/>
<stop offset="1" stop-color="#229ED9"/>
</linearGradient>
</defs>
</svg>
