<svg width="92" height="92" viewBox="0 0 92 92" fill="none" xmlns="http://www.w3.org/2000/svg">
<rect x="0.179688" width="91.6775" height="92" rx="45.8387" fill="url(#paint0_linear_0_1243)" fill-opacity="0.15"/>
<rect x="8.01855" y="8" width="76" height="76" rx="38" fill="url(#paint1_linear_0_1243)" fill-opacity="0.3"/>
<rect x="16.0186" y="16" width="60" height="60" rx="30" fill="url(#paint2_linear_0_1243)"/>
<path fill-rule="evenodd" clip-rule="evenodd" d="M52.2618 45.9998L42.6981 39.624V52.3758L52.2618 45.9998ZM54.194 44.7886C55.0585 45.3649 55.0585 46.6349 54.194 47.2113L42.8815 54.7531C41.9141 55.3981 40.6182 54.7043 40.6182 53.5416V38.4582C40.6182 37.2955 41.9141 36.602 42.8815 37.247L54.194 44.7886Z" fill="white"/>
<path d="M52.2618 45.9998L42.6981 39.624V52.3758L52.2618 45.9998Z" fill="white"/>
<defs>
<linearGradient id="paint0_linear_0_1243" x1="0.179688" y1="46" x2="91.8572" y2="46" gradientUnits="userSpaceOnUse">
<stop stop-color="#C6005E"/>
<stop offset="1" stop-color="#810A84"/>
</linearGradient>
<linearGradient id="paint1_linear_0_1243" x1="8.01855" y1="46" x2="84.0186" y2="46" gradientUnits="userSpaceOnUse">
<stop stop-color="#C6005E"/>
<stop offset="1" stop-color="#810A84"/>
</linearGradient>
<linearGradient id="paint2_linear_0_1243" x1="16.0186" y1="35.5" x2="102.019" y2="46" gradientUnits="userSpaceOnUse">
<stop offset="0.0001" stop-color="#FD17A1"/>
<stop offset="1" stop-color="#A11FCE"/>
</linearGradient>
</defs>
</svg>
