<svg width="55" height="55" viewBox="0 0 55 55" fill="none" xmlns="http://www.w3.org/2000/svg">
<g clip-path="url(#clip0_0_1228)">
<path d="M53.743 39.4658C53.5186 38.6281 52.9813 37.9279 52.2302 37.4943C51.801 37.2463 51.3312 37.1026 50.851 37.0667L46.4365 20.5914C46.2829 20.0184 45.6936 19.678 45.1209 19.8318L42.0078 20.6659L38.4303 7.31468C38.2767 6.74168 37.6875 6.40147 37.1146 6.55508L17.9011 11.7033L15.8559 4.07046C15.4357 2.50185 14.5915 1.31374 13.4148 0.634387C12.2381 -0.0449652 10.7869 -0.182039 9.21846 0.238313L3.55225 1.75665C1.82315 2.21997 0.793166 4.00386 1.25649 5.73318C1.4809 6.57087 2.01823 7.27106 2.76935 7.70474C3.52035 8.1383 4.39564 8.25346 5.23312 8.02905L9.86161 6.78894L13.1954 19.2309C13.349 19.8041 13.9382 20.1444 14.511 19.9905C15.0842 19.837 15.4243 19.2479 15.2706 18.6748L11.6588 5.19509C11.5052 4.62209 10.916 4.28187 10.3432 4.43549L4.6771 5.95372C4.39307 6.02967 4.09754 5.99067 3.84348 5.84404C3.58942 5.6973 3.40766 5.46053 3.33171 5.17715C3.17498 4.59212 3.52336 3.98861 4.10828 3.83187L9.77438 2.31364C10.7806 2.04412 11.6678 2.10685 12.3405 2.49508C13.013 2.88332 13.511 3.62046 13.7806 4.6266L23.2228 39.8658C22.8629 39.9082 22.5016 39.977 22.1414 40.0735C21.7812 40.17 21.434 40.2911 21.101 40.4344L17.7734 28.0156C17.6198 27.4426 17.0306 27.1023 16.4578 27.256C15.8847 27.4095 15.5446 27.9986 15.6982 28.5716L19.1942 41.6189C17.0308 43.4609 15.9902 46.4497 16.7731 49.372C17.6809 52.7601 20.7562 55 24.1081 54.9999C24.7567 54.9999 25.4159 54.916 26.0713 54.7403C28.0301 54.2154 29.6673 52.9592 30.6813 51.2029C31.1244 50.4354 31.4253 49.6125 31.5799 48.7658L51.447 43.4425C52.2848 43.2181 52.9849 42.6807 53.4186 41.9296C53.8523 41.1785 53.9675 40.3035 53.743 39.4658ZM48.7288 37.448L29.8944 42.4947C28.7593 41.1614 27.1886 40.2547 25.4666 39.9382L22.3127 28.1676L29.2275 26.3147L31.3584 34.2672C31.4603 34.6472 31.7617 34.9412 32.144 35.0335C32.5216 35.1256 32.9287 35.0028 33.1927 34.7098L35.3819 32.2897L38.488 33.291C38.8626 33.4118 39.273 33.318 39.5579 33.047C39.843 32.7759 39.9571 32.3706 39.8553 31.9906L37.7244 24.0382L44.6392 22.1853L48.7288 37.448ZM35.6491 24.5941L37.2692 30.6407L35.3805 30.0318C34.9788 29.9022 34.5376 30.0202 34.2543 30.3336L32.9229 31.8053L31.3028 25.7587L35.6491 24.5941ZM30.3826 15.425L29.1345 15.0226C28.7329 14.893 28.2917 15.011 28.0083 15.3244L27.1287 16.2968L25.9182 11.7793L29.1722 10.9075L30.3826 15.425ZM23.8429 12.3356L25.5639 18.7589C25.6657 19.1389 25.9672 19.4328 26.3495 19.5252C26.7271 19.6172 27.1343 19.4945 27.3982 19.2015L29.1358 17.2805L31.6012 18.0753C31.9758 18.1961 32.3861 18.1023 32.6711 17.8313C32.9562 17.5602 33.0703 17.1549 32.9685 16.7749L31.2475 10.3516L36.6331 8.90853L39.9326 21.2222L21.7567 26.0924L18.4573 13.7786L23.8429 12.3356ZM28.8207 50.1287C28.0937 51.3879 26.92 52.2886 25.5154 52.665C22.6168 53.4417 19.6253 51.7152 18.8484 48.8158C18.0717 45.9166 19.7984 42.9256 22.6975 42.1489C25.5969 41.372 28.5876 43.0987 29.3645 45.9981C29.7408 47.4025 29.5477 48.8694 28.8207 50.1287ZM51.558 40.8553C51.4113 41.1093 51.1745 41.2911 50.8911 41.367L31.6484 46.5232C31.6052 46.1614 31.5358 45.8002 31.4398 45.442C31.3433 45.0818 31.2223 44.7346 31.079 44.4016L50.3226 39.2453C50.606 39.1693 50.9019 39.2082 51.156 39.355C51.41 39.5017 51.5918 39.7385 51.6678 40.022C51.7437 40.3052 51.7047 40.6013 51.558 40.8553Z" fill="#8436E8"/>
<path d="M23.2724 44.2937C21.5558 44.7538 20.5336 46.5245 20.9936 48.2408C21.3789 49.679 22.6843 50.6298 24.1073 50.6298C24.3825 50.6298 24.6623 50.5942 24.9406 50.5197C25.772 50.2969 26.4671 49.7637 26.8975 49.0181C27.3279 48.2726 27.4422 47.4042 27.2194 46.5727C26.7595 44.8562 24.9895 43.8338 23.2724 44.2937ZM25.0368 47.9439C24.8934 48.1924 24.6617 48.3702 24.3847 48.4444C23.8126 48.5978 23.2222 48.2569 23.0689 47.6847C22.9156 47.1126 23.2563 46.5225 23.8284 46.3691C24.4003 46.2156 24.9908 46.5565 25.1441 47.1288C25.2185 47.4058 25.1803 47.6953 25.0368 47.9439Z" fill="#8436E8"/>
<path d="M16.5594 23.623C16.5594 23.0297 16.0783 22.5488 15.4852 22.5488C14.892 22.5488 14.4106 23.0297 14.4106 23.623C14.4106 24.2163 14.8919 24.6972 15.4852 24.6972C16.0784 24.6972 16.5594 24.2163 16.5594 23.623Z" fill="#8436E8"/>
</g>
<defs>
<clipPath id="clip0_0_1228">
<rect width="55" height="55" fill="white"/>
</clipPath>
</defs>
</svg>
