<svg width="55" height="55" viewBox="0 0 55 55" fill="none" xmlns="http://www.w3.org/2000/svg">
<g clip-path="url(#clip0_57_1569)">
<path d="M11.3867 20.4102C11.3867 29.2951 18.615 36.5234 27.5 36.5234C36.385 36.5234 43.6133 29.2951 43.6133 20.4102C43.6133 11.5252 36.385 4.29688 27.5 4.29688C18.615 4.29688 11.3867 11.5252 11.3867 20.4102ZM27.5 6.44531C35.2004 6.44531 41.4648 12.7098 41.4648 20.4102C41.4648 28.1105 35.2004 34.375 27.5 34.375C19.7996 34.375 13.5352 28.1105 13.5352 20.4102C13.5352 12.7098 19.7996 6.44531 27.5 6.44531Z" fill="#8436E8"/>
<path d="M17.5517 18.495L21.7156 22.5976L20.7576 28.3636C20.6909 28.7651 20.8566 29.1697 21.186 29.4088C21.515 29.648 21.951 29.6803 22.3123 29.4932L27.5 26.7992L32.6873 29.4932C33.0457 29.6791 33.4816 29.6501 33.8136 29.4088C34.143 29.1697 34.3087 28.7651 34.242 28.3636L33.284 22.5976L37.4479 18.495C37.7378 18.2097 37.8415 17.785 37.7156 17.3977C37.5897 17.0108 37.2561 16.7284 36.8537 16.6676L31.0751 15.7977L28.4605 10.5689C28.2788 10.2051 27.9066 9.97513 27.5 9.97513C27.093 9.97513 26.7212 10.2051 26.5391 10.5689L23.9244 15.7977L18.1459 16.6676C17.7435 16.728 17.4099 17.0108 17.284 17.3977C17.1581 17.785 17.2622 18.2097 17.5517 18.495ZM24.796 17.8392C25.1418 17.7871 25.4405 17.5702 25.597 17.2576L27.5 13.4512L29.403 17.2576C29.5595 17.5702 29.8582 17.7871 30.204 17.8392L34.4098 18.4724L31.3789 21.4579C31.1301 21.7034 31.016 22.0546 31.073 22.3996L31.7704 26.5961L27.9947 24.6357C27.8399 24.5551 27.6699 24.5148 27.5 24.5148C27.3301 24.5148 27.1601 24.5551 27.0049 24.6357L23.2291 26.5961L23.9265 22.3996C23.984 22.0546 23.8699 21.7034 23.6206 21.4579L20.5902 18.4724L24.796 17.8392Z" fill="#8436E8"/>
<path d="M28.5742 1.07422C28.5742 1.66756 28.0934 2.14844 27.5 2.14844C26.9067 2.14844 26.4258 1.66756 26.4258 1.07422C26.4258 0.480881 26.9067 0 27.5 0C28.0934 0 28.5742 0.480881 28.5742 1.07422Z" fill="#8436E8"/>
<path d="M22.4373 0.633214C13.4009 2.93985 7.08984 11.0724 7.08984 20.4102C7.08984 26.2097 9.52824 31.6744 13.8087 35.5445L7.337 46.9501C7.12887 47.3173 7.15488 47.7721 7.4033 48.1128C7.65171 48.454 8.07636 48.6181 8.48969 48.532L15.8393 47.0059L18.4224 54.285C18.5626 54.6811 18.9214 54.9585 19.3401 54.9958C19.7589 55.0332 20.1605 54.8221 20.3682 54.4566L27.5 41.9185L34.6314 54.4566C34.8236 54.7944 35.1811 54.9996 35.5646 54.9996C35.5961 54.9996 35.628 54.9983 35.6594 54.9958C36.0782 54.9585 36.437 54.6807 36.5776 54.285L39.1603 47.0059L46.5099 48.532C46.9228 48.6176 47.3479 48.4536 47.5963 48.1128C47.8451 47.7721 47.8707 47.3173 47.6626 46.9501L41.1908 35.5445C45.4713 31.6744 47.9097 26.2097 47.9097 20.4102C47.9097 11.0724 41.5987 2.93985 32.5627 0.633214C31.9874 0.486348 31.4029 0.833371 31.256 1.40825C31.1091 1.98312 31.4561 2.56807 32.031 2.71493C40.1154 4.77861 45.7617 12.0552 45.7617 20.4102C45.7617 30.5787 37.5032 38.6719 27.5 38.6719C17.4896 38.6719 9.23828 30.572 9.23828 20.4102C9.23828 12.0552 14.8842 4.77861 22.9686 2.71493C23.5434 2.56807 23.8905 1.98312 23.744 1.40825C23.5971 0.833371 23.0126 0.486348 22.4373 0.633214ZM19.662 51.3535L17.5509 45.4046C17.3713 44.8986 16.8459 44.6028 16.3202 44.7119L10.3771 45.9459L15.499 36.9192C18.4854 39.0903 22.0215 40.4129 25.6986 40.7402L19.662 51.3535ZM38.6794 44.7119C38.1541 44.6028 37.6283 44.8986 37.4487 45.4046L35.338 51.3535L29.301 40.7402C32.9785 40.4129 36.5142 39.0903 39.501 36.9192L44.6229 45.9459L38.6794 44.7119Z" fill="#8436E8"/>
</g>
<defs>
<clipPath id="clip0_57_1569">
<rect width="55" height="55" fill="white"/>
</clipPath>
</defs>
</svg>
