<svg width="55" height="55" viewBox="0 0 55 55" fill="none" xmlns="http://www.w3.org/2000/svg">
<path d="M45.9496 20.2843C45.8268 18.3667 44.2899 16.8099 42.372 16.6627C42.3024 16.6576 42.2329 16.6543 42.1638 16.6528L42.1639 12.0404C42.1639 8.92128 41.0966 5.99017 39.1589 3.78705C37.1739 1.53012 34.4022 0.192393 31.3571 0.0205176C31.1291 0.00708984 30.8962 0.000214844 30.665 0.000214844L24.3385 0C17.9966 0 12.8372 5.15958 12.8372 11.5014L12.8373 16.6528C12.7674 16.6544 12.6974 16.6577 12.6271 16.6629C10.7114 16.8084 9.17407 18.3648 9.05128 20.2832C8.98157 21.3705 9.35207 22.4052 10.0946 23.1968C10.8263 23.9769 11.8593 24.4243 12.9288 24.4243C12.9805 24.4243 13.032 24.4233 13.0834 24.4213C13.7659 27.158 15.0846 29.603 16.9332 31.5423C18.8823 33.5873 21.3443 34.9812 24.0965 35.6071L24.1148 36.9183H21.633C16.0143 36.9183 11.4432 41.4894 11.4432 47.108V53.9258C11.4432 54.5191 11.9243 55 12.5175 55H22.6443C23.2376 55 23.7186 54.5191 23.7186 53.9258C23.7186 53.3325 23.2376 52.8516 22.6443 52.8516H19.7631V46.9064C19.7631 46.3131 19.282 45.8322 18.6889 45.8322C18.0957 45.8322 17.6146 46.3131 17.6146 46.9064V52.8516H13.5917V47.108C13.5917 42.6741 17.199 39.0668 21.633 39.0668H21.6752C22.1185 41.8836 24.5619 44.0448 27.5005 44.0448C30.439 44.0448 32.8825 41.8837 33.3257 39.0668H33.3679C37.8019 39.0668 41.4092 42.6741 41.4092 47.108V52.8516H37.3863V46.9064C37.3863 46.3131 36.9053 45.8322 36.3121 45.8322C35.7189 45.8322 35.2378 46.3131 35.2378 46.9064V52.8516H32.3566C31.7634 52.8516 31.2823 53.3325 31.2823 53.9258C31.2823 54.5191 31.7634 55 32.3566 55H42.4834C43.0767 55 43.5577 54.5191 43.5577 53.9258V47.108C43.5577 41.4893 38.9865 36.9183 33.3679 36.9183H30.8862L30.9045 35.6081C36.5356 34.3399 41.015 29.9885 42.4539 24.4054C43.3844 24.3126 44.2622 23.8835 44.9067 23.1965C45.6488 22.4049 46.0193 21.3706 45.9496 20.2843ZM14.9856 11.5014C14.9856 6.34412 19.1814 2.14844 24.3385 2.14844L30.6649 2.14854C30.8543 2.14854 31.0445 2.15413 31.2334 2.1652C36.322 2.45255 40.0154 6.60559 40.0154 12.0403L40.0153 14.7521C39.5258 14.0423 39.2518 13.5031 39.247 13.4938C39.0652 13.1297 38.6931 12.8998 38.2861 12.8998H37.1477L35.9136 9.19778C35.7675 8.75918 35.357 8.46323 34.8946 8.46323C34.4323 8.46323 34.0217 8.75907 33.8755 9.19778C33.1375 11.412 31.0734 12.8998 28.7393 12.8998H17.7708C17.4868 12.8998 17.2143 13.0122 17.0131 13.2126C16.9993 13.2262 16.0925 14.1278 14.9856 15.1714V11.5014ZM43.3395 21.7266C43.0436 22.042 42.6545 22.2312 42.2304 22.2689C42.1605 22.2317 42.0851 22.1982 42.0026 22.1674C41.7051 22.0563 41.3738 22.0825 41.0975 22.2388C40.8212 22.3952 40.6282 22.6659 40.5704 22.9781C39.5545 28.4648 35.1734 32.7578 29.6688 33.6605C29.1551 33.7448 28.7757 34.1851 28.7685 34.7056L28.7227 37.9775C28.7187 38.265 28.83 38.542 29.032 38.7467C29.2338 38.9515 29.5092 39.0666 29.7968 39.0666H31.1348C30.7235 40.691 29.25 41.8962 27.5005 41.8962C25.7509 41.8962 24.2774 40.691 23.8662 39.0666H25.2041C25.4917 39.0666 25.7671 38.9514 25.9689 38.7467C26.1709 38.542 26.2822 38.265 26.2782 37.9775L26.2324 34.7056C26.2252 34.1852 25.8458 33.7449 25.3321 33.6605C19.997 32.7855 16.0256 28.6923 14.9678 22.9781C14.91 22.6659 14.717 22.3952 14.4407 22.2388C14.1643 22.0823 13.8332 22.0562 13.5356 22.1673C13.3428 22.2393 13.1386 22.2759 12.9288 22.2759C12.4436 22.2759 11.9936 22.081 11.6615 21.727C11.3296 21.3731 11.1639 20.9091 11.1953 20.4206C11.2502 19.5645 11.9358 18.87 12.7883 18.8053C13.0474 18.7857 13.2998 18.8208 13.537 18.909C13.8666 19.0317 14.2355 18.9851 14.5245 18.7843C14.7553 18.6239 14.9116 18.3815 14.9652 18.1111C16.2489 16.9627 17.6089 15.6405 18.2118 15.0481H28.7392C31.0906 15.0481 33.2455 13.9674 34.6512 12.2045L35.3543 14.3135C35.5004 14.7521 35.9109 15.0481 36.3733 15.0481H37.6544C38.0777 15.7647 38.8951 17.0064 40.0333 18.0978C40.0843 18.3735 40.242 18.6214 40.4766 18.7842C40.7656 18.9851 41.1345 19.0316 41.4641 18.9088C41.7012 18.8207 41.9529 18.7857 42.2102 18.8048C43.0648 18.8704 43.7507 19.5654 43.8056 20.4214C43.8369 20.9093 43.6713 21.3728 43.3395 21.7266Z" fill="#8436E8"/>
<path d="M28.5124 53.5152C28.3392 53.0927 27.8985 52.822 27.4436 52.8549C26.991 52.8876 26.6013 53.2099 26.4832 53.6478C26.3684 54.0732 26.5345 54.5428 26.8944 54.7984C27.2666 55.0629 27.773 55.0628 28.1451 54.7984C28.5471 54.5129 28.7019 53.9699 28.5124 53.5152Z" fill="#8436E8"/>
<path d="M32.5258 19.2882C31.9325 19.2882 31.4515 19.7691 31.4515 20.3624V21.8206C31.4515 22.4138 31.9325 22.8948 32.5258 22.8948C33.1189 22.8948 33.6 22.4138 33.6 21.8206V20.3624C33.6 19.7691 33.1191 19.2882 32.5258 19.2882Z" fill="#8436E8"/>
<path d="M23.5494 21.8206V20.3624C23.5494 19.7691 23.0683 19.2882 22.4752 19.2882C21.882 19.2882 21.4009 19.7691 21.4009 20.3624V21.8206C21.4009 22.4138 21.882 22.8948 22.4752 22.8948C23.0683 22.8948 23.5494 22.4138 23.5494 21.8206Z" fill="#8436E8"/>
<path d="M30.0573 27.7271C29.3744 28.4103 28.4663 28.7866 27.5004 28.7866C26.5346 28.7866 25.6266 28.4104 24.9436 27.7271C24.5241 27.3075 23.844 27.3073 23.4244 27.7269C23.0048 28.1462 23.0047 28.8264 23.4241 29.246C24.5128 30.3352 25.9604 30.935 27.5003 30.935C29.0402 30.935 30.4878 30.3352 31.5766 29.246C31.9959 28.8264 31.9958 28.1462 31.5762 27.7269C31.1569 27.3073 30.4766 27.3075 30.0573 27.7271Z" fill="#8436E8"/>
<path d="M36.2228 23.6632H34.933C34.3398 23.6632 33.8588 24.1442 33.8588 24.7375C33.8588 25.3308 34.3398 25.8117 34.933 25.8117H36.2228C36.816 25.8117 37.297 25.3308 37.297 24.7375C37.297 24.1442 36.8161 23.6632 36.2228 23.6632Z" fill="#8436E8"/>
<path d="M20.0679 23.6632H18.7781C18.1849 23.6632 17.7039 24.1442 17.7039 24.7375C17.7039 25.3308 18.1849 25.8117 18.7781 25.8117H20.0679C20.6611 25.8117 21.1421 25.3308 21.1421 24.7375C21.1421 24.1442 20.6611 23.6632 20.0679 23.6632Z" fill="#8436E8"/>
</svg>
