<svg width="55" height="55" viewBox="0 0 55 55" fill="none" xmlns="http://www.w3.org/2000/svg">
<path d="M53.9258 44.3299H51.7947V22.4567C53.0503 21.4888 53.8607 19.9703 53.8607 18.2661V12.5082C53.8607 12.4981 53.855 12.2572 53.7754 12.0848L50.3658 3.55645C50.2026 3.14846 49.8077 2.88098 49.3683 2.88098H5.63159C5.19224 2.88098 4.79725 3.14846 4.63407 3.55645L1.22461 12.0848C1.14501 12.2389 1.13932 12.4981 1.13932 12.5082V18.2661C1.13932 19.9703 1.94971 21.4888 3.20525 22.4567V44.3298H1.07422C0.480928 44.3298 0 44.8107 0 45.404V51.0442C0 51.6375 0.480928 52.1184 1.07422 52.1184H22.6439C23.2372 52.1184 23.7181 51.6375 23.7181 51.0442C23.7181 50.4509 23.2372 49.97 22.6439 49.97H2.14844V46.4783H52.8516V49.97H32.3562C31.7629 49.97 31.282 50.4509 31.282 51.0442C31.282 51.6375 31.7629 52.1184 32.3562 52.1184H53.9258C54.5191 52.1184 55 51.6375 55 51.0442V45.404C55 44.8109 54.5191 44.3299 53.9258 44.3299ZM43.2834 18.2661C43.2834 19.9976 41.8747 21.4062 40.1432 21.4062C38.4118 21.4062 37.0031 19.9975 37.0031 18.2661V13.5792H43.2834V18.2661ZM34.8546 18.2661C34.8546 19.9976 33.4459 21.4062 31.7145 21.4062C29.9831 21.4062 28.5742 19.9976 28.5742 18.2661V13.5792H34.8546V18.2661ZM26.4258 18.2661C26.4258 19.9976 25.0171 21.4062 23.2856 21.4062C21.5542 21.4062 20.1455 19.9975 20.1455 18.2661V13.5792H26.4258V18.2661ZM17.997 18.2661C17.997 19.9976 16.5883 21.4062 14.8569 21.4062C13.1254 21.4062 11.7167 19.9975 11.7167 18.2661V13.5792H17.9971L17.997 18.2661ZM3.28775 18.2661V13.5792H9.56807V18.2661C9.56807 19.9976 8.15934 21.4062 6.42791 21.4062C4.69648 21.4062 3.28775 19.9976 3.28775 18.2661ZM18.9837 5.02942L18.1307 11.4308H12.0404L13.7465 5.02942H18.9837ZM28.5742 5.02942H33.8488L34.7019 11.4308H28.5742V5.02942ZM41.2535 5.02942L42.9596 11.4308H36.8694L36.0164 5.02942H41.2535ZM45.4318 13.5792H51.7121V18.2661C51.7121 19.9976 50.3034 21.4062 48.572 21.4062C46.8406 21.4062 45.4318 19.9975 45.4318 18.2661V13.5792ZM51.2001 11.4308H45.1829L43.4769 5.02942H48.6408L51.2001 11.4308ZM26.4258 11.4308H20.2981L21.1512 5.02942H26.4258V11.4308ZM6.35905 5.02942H11.523L9.81696 11.4308H3.79994L6.35905 5.02942ZM10.506 44.3299V28.6965H21.6199V44.3298L10.506 44.3299ZM23.7684 44.3299V27.6223C23.7684 27.029 23.2875 26.5481 22.6942 26.5481H9.43175C8.83846 26.5481 8.35753 27.029 8.35753 27.6223V44.3298H5.35369V23.445C5.70066 23.5168 6.05999 23.5546 6.42791 23.5546C8.14623 23.5546 9.6756 22.7308 10.6423 21.4576C11.6089 22.7308 13.1383 23.5546 14.8567 23.5546C16.575 23.5546 18.1045 22.7308 19.071 21.4576C20.0376 22.7308 21.5671 23.5546 23.2854 23.5546C25.0037 23.5546 26.5332 22.7308 27.4998 21.4576C28.4664 22.7308 29.9958 23.5546 31.7142 23.5546C33.4325 23.5546 34.962 22.7308 35.9285 21.4576C36.8951 22.7308 38.4246 23.5546 40.1429 23.5546C41.8612 23.5546 43.3907 22.7308 44.3573 21.4576C45.3239 22.7308 46.8533 23.5546 48.5717 23.5546C48.9396 23.5546 49.2989 23.5168 49.6459 23.445V44.3298L23.7684 44.3299Z" fill="#8436E8"/>
<path d="M45.5682 26.548H28.8652C28.2719 26.548 27.791 27.029 27.791 27.6223V39.3061C27.791 39.8994 28.2719 40.3803 28.8652 40.3803H45.5682C46.1615 40.3803 46.6425 39.8994 46.6425 39.3061V27.6223C46.6425 27.029 46.1615 26.548 45.5682 26.548ZM44.494 38.2319H37.1199L38.9308 36.4211C39.3502 36.0016 39.3502 35.3214 38.9308 34.9018C38.5113 34.4823 37.8311 34.4823 37.4115 34.9018L34.0814 38.2319H29.9393V28.6965H44.4939L44.494 38.2319Z" fill="#8436E8"/>
<path d="M32.5082 36.1927C32.2333 36.1927 31.9583 36.0879 31.7486 35.8781C31.3292 35.4586 31.3292 34.7784 31.7486 34.3588L36.0267 30.0808C36.4462 29.6613 37.1264 29.6613 37.546 30.0808C37.9655 30.5002 37.9655 31.1804 37.546 31.6L33.2679 35.8781C33.058 36.0879 32.7831 36.1927 32.5082 36.1927Z" fill="#8436E8"/>
<path d="M27.5193 52.1187C27.064 52.1187 26.6494 51.8193 26.5031 51.3894C26.3607 50.9709 26.4965 50.4952 26.8379 50.2142C27.1884 49.9258 27.7008 49.8915 28.0862 50.1318C28.4613 50.3658 28.6604 50.8195 28.5731 51.2539C28.4736 51.7496 28.0257 52.1187 27.5193 52.1187Z" fill="#8436E8"/>
</svg>
