<svg width="187" height="58" viewBox="0 0 187 58" fill="none" xmlns="http://www.w3.org/2000/svg">
<g clip-path="url(#clip0_0_1561)">
<g clip-path="url(#clip1_0_1561)">
<path d="M10.1396 30.666C13.684 30.666 16.8246 28.91 18.4846 26.1635L14.6262 23.9123C13.8186 25.4431 12.1137 26.2986 10.1396 26.2986C6.68498 26.2986 4.4417 24.0024 4.4417 20.4905C4.4417 17.0236 6.68498 14.6823 10.1396 14.6823C12.1137 14.6823 13.7738 15.5828 14.6262 17.1136L18.4846 14.8624C16.7797 12.1159 13.684 10.36 10.1396 10.36C4.26224 10.36 0 14.7724 0 20.4905C0 26.2536 4.26224 30.666 10.1396 30.666ZM43.071 34.0428C41.6802 33.7276 40.5585 32.602 40.2445 31.2062C40.1996 31.1612 40.1547 31.1162 40.1099 31.1162C40.065 31.1162 40.0201 31.1612 40.0201 31.2062C39.6612 32.602 38.5844 33.7276 37.1936 34.0428C37.1487 34.0428 37.1039 34.0878 37.1039 34.1328C37.1039 34.1778 37.1487 34.2229 37.1936 34.2679C38.5844 34.5831 39.6612 35.7087 40.0201 37.1044C40.0201 37.1495 40.065 37.1945 40.1099 37.1945C40.1547 37.1945 40.1996 37.1495 40.2445 37.1044C40.5585 35.7087 41.6802 34.5831 43.071 34.2679C43.1159 34.2229 43.1607 34.1778 43.1607 34.1328C43.1607 34.0878 43.1159 34.0428 43.071 34.0428ZM23.8685 6.17273C22.4777 5.85756 21.356 4.73195 21.042 3.33619C21.042 3.29117 20.9971 3.24615 20.9074 3.24615C20.8625 3.24615 20.8177 3.29117 20.8177 3.33619C20.5036 4.73195 19.382 5.85756 17.9911 6.17273C17.9463 6.17273 17.9014 6.21775 17.9014 6.26277C17.9014 6.3078 17.9463 6.35282 17.9911 6.39785C19.382 6.71302 20.5036 7.83862 20.8177 9.23438C20.8177 9.2794 20.8625 9.32443 20.9074 9.32443C20.9971 9.32443 21.042 9.2794 21.042 9.23438C21.356 7.83862 22.4777 6.71302 23.8685 6.39785C23.9134 6.35282 23.9583 6.3078 23.9583 6.26277C23.9583 6.21775 23.9134 6.17273 23.8685 6.17273ZM49.7111 2.93097C48.3203 2.6158 47.1987 1.4902 46.8846 0.0944432C46.8397 0.0494188 46.7949 0.00439453 46.75 0.00439453C46.7051 0.00439453 46.6603 0.0494188 46.6603 0.0944432C46.3462 1.4902 45.2246 2.6158 43.8337 2.93097C43.7889 2.93097 43.744 2.976 43.744 3.02102C43.744 3.11107 43.7889 3.11107 43.8337 3.1561C45.2246 3.47127 46.3462 4.59687 46.6603 5.99263C46.6603 6.03765 46.7051 6.08268 46.75 6.08268C46.7949 6.08268 46.8397 6.03765 46.8846 5.99263C47.1987 4.59687 48.3203 3.47127 49.7111 3.1561C49.756 3.11107 49.8009 3.11107 49.8009 3.02102C49.8009 2.976 49.756 2.93097 49.7111 2.93097ZM37.4628 4.6419C40.3791 5.85756 39.7958 13.9619 36.1617 22.7867C32.5276 31.5664 27.1886 37.7348 24.3172 36.5191C22.4777 35.7537 22.029 32.1968 22.9263 27.4242C21.2663 25.6232 20.2793 23.1919 20.2793 20.4905C20.2793 14.9525 24.5415 10.6301 29.8805 10.36C32.6622 6.17273 35.5784 3.83146 37.4628 4.6419ZM24.5415 28.82C24.4069 30.8911 24.721 32.2868 25.5285 32.647C26.4259 33.0072 27.6821 32.1968 29.0281 30.5759C27.368 30.3508 25.8426 29.7655 24.5415 28.82ZM31.9892 26.1185C32.7071 24.8128 33.38 23.417 34.0082 21.8862C34.5914 20.4454 35.0849 19.0497 35.4887 17.744C34.5465 15.853 32.6622 14.6823 30.4189 14.6823C27.2334 14.6823 24.721 17.0236 24.721 20.4905C24.721 24.0024 27.2334 26.2986 30.4189 26.2986C30.9573 26.2986 31.4957 26.2536 31.9892 26.1185ZM36.6104 12.4311C36.8347 10.1799 36.5206 8.64906 35.6233 8.24384C34.726 7.88365 33.4249 8.73911 32.0341 10.45C33.739 10.7202 35.3093 11.4406 36.6104 12.4311ZM33.6941 30.1257C37.6871 28.82 40.5585 25.0829 40.5585 20.4905C40.5585 18.8696 40.1547 17.3388 39.5266 15.988C38.9434 18.2843 38.0909 20.7606 37.059 23.282C36.0271 25.8033 34.9055 28.0996 33.6941 30.1257ZM49.9803 30.666C54.1977 30.666 57.2037 28.4598 57.2037 24.6777C57.2037 20.5355 53.9285 19.4999 50.9674 18.5994C47.9165 17.6989 47.4678 17.0686 47.4678 16.1681C47.4678 15.4027 48.1408 14.6823 49.5317 14.6823C51.3263 14.6823 52.2236 15.5828 52.8966 16.9786L56.6653 14.7724C55.2296 11.8908 52.762 10.36 49.5317 10.36C46.1667 10.36 42.9813 12.5212 42.9813 16.3032C42.9813 20.0402 45.8527 21.436 48.7241 22.2464C51.6404 23.0568 52.762 23.5071 52.762 24.7227C52.762 25.4882 52.2236 26.2986 50.1149 26.2986C47.9165 26.2986 46.75 25.218 46.0321 23.5971L42.1737 25.8484C43.2953 28.7299 45.8975 30.666 49.9803 30.666ZM79.6365 10.7202H75.1499L69.8558 19.4099L64.6065 10.7202H60.12V30.3058H64.6065V18.9146L69.6315 27.1991H70.125L75.1499 18.9146V30.3058H79.6365V10.7202ZM93.0513 30.666C98.6595 30.666 103.191 26.2536 103.191 20.4905C103.191 14.7724 98.6595 10.36 93.0513 10.36C87.488 10.36 82.9566 14.7724 82.9566 20.4905C82.9566 26.2536 87.488 30.666 93.0513 30.666ZM93.0513 26.2986C89.9107 26.2986 87.3983 24.0024 87.3983 20.4905C87.3983 17.0236 89.9107 14.6823 93.0513 14.6823C96.2368 14.6823 98.7493 17.0236 98.7493 20.4905C98.7493 24.0024 96.2368 26.2986 93.0513 26.2986ZM114.318 10.7202H106.511V30.3058H114.318C119.702 30.3058 123.784 26.0284 123.784 20.4905C123.784 14.9975 119.702 10.7202 114.318 10.7202ZM114.318 25.9834H110.998V15.0425H114.318C117.369 15.0425 119.522 17.1587 119.522 20.4905C119.522 23.8673 117.369 25.9834 114.318 25.9834ZM137.334 30.3058H142.134L138.007 23.1019C140.16 22.0213 141.596 19.8601 141.596 17.4288C141.596 13.7368 138.59 10.7202 134.911 10.7202H127.104V30.3058H131.546V23.8673H133.7L137.334 30.3058ZM131.546 14.9074H134.911C136.122 14.9074 137.154 16.0331 137.154 17.4288C137.154 18.8696 136.122 19.9502 134.911 19.9502H131.546V14.9074ZM154.069 30.666C159.677 30.666 164.208 26.2536 164.208 20.4905C164.208 14.7724 159.677 10.36 154.069 10.36C148.46 10.36 143.929 14.7724 143.929 20.4905C143.929 26.2536 148.46 30.666 154.069 30.666ZM154.069 26.2986C150.883 26.2986 148.371 24.0024 148.371 20.4905C148.371 17.0236 150.883 14.6823 154.069 14.6823C157.254 14.6823 159.767 17.0236 159.767 20.4905C159.767 24.0024 157.254 26.2986 154.069 26.2986ZM187 10.7202H182.558L177.264 19.4099L171.97 10.7202H167.528V30.3058H171.97V18.9146L177.04 27.1991H177.533L182.558 18.9146V30.3058H187V10.7202Z" fill="white"/>
<path d="M0 47.0098H6.68498V48.3155H4.03791V54.8441H2.69194V48.3155H0V47.0098ZM14.7159 53.8535C13.9083 54.664 12.9662 55.0692 11.7997 55.0692C10.6332 55.0692 9.64611 54.664 8.83853 53.8535C8.07582 53.0881 7.67202 52.0976 7.67202 50.9269C7.67202 49.7563 8.07582 48.8108 8.83853 48.0004C9.64611 47.1899 10.6332 46.7847 11.7997 46.7847C12.9662 46.7847 13.9083 47.1899 14.7159 48.0004C15.5235 48.8108 15.9273 49.8013 15.9273 50.9269C15.9273 52.0976 15.5235 53.0881 14.7159 53.8535ZM11.7997 53.7184C12.5624 53.7184 13.2354 53.4483 13.7738 52.908C14.3121 52.4127 14.5813 51.7374 14.5813 50.9269C14.5813 50.1165 14.3121 49.4862 13.7738 48.9459C13.2354 48.4056 12.5624 48.1354 11.7997 48.1354C11.0369 48.1354 10.364 48.4056 9.82557 48.9459C9.28719 49.4862 9.01799 50.1165 9.01799 50.9269C9.01799 51.7374 9.28719 52.4127 9.82557 52.908C10.364 53.4483 11.0369 53.7184 11.7997 53.7184ZM23.2853 50.8369C24.0928 51.1521 24.4966 51.7824 24.4966 52.6379C24.4966 53.3132 24.2723 53.8535 23.8237 54.2587C23.375 54.664 22.7917 54.8441 21.9842 54.8441H18.0809V47.0098H21.6701C22.4328 47.0098 23.0609 47.1899 23.4647 47.5951C23.9134 47.9553 24.1377 48.4956 24.1377 49.126C24.1377 49.8914 23.8237 50.4767 23.2853 50.8369ZM21.6252 48.2255H19.382V50.2966H21.6252C22.388 50.2966 22.7917 49.9364 22.7917 49.216C22.7917 48.5857 22.388 48.2255 21.6252 48.2255ZM19.382 53.6284H21.8944C22.2982 53.6284 22.6123 53.5383 22.8366 53.3583C23.0161 53.1331 23.1507 52.863 23.1507 52.5478C23.1507 52.2326 23.0161 51.9625 22.8366 51.7824C22.6123 51.6023 22.2982 51.5123 21.8944 51.5123H19.382V53.6284ZM32.9762 48.3606V47.0098H34.3222V54.8441H32.9762V53.4933C32.3033 54.5289 31.3162 55.0692 30.0151 55.0692C28.8935 55.0692 27.9513 54.664 27.1886 53.8535C26.4259 53.0881 26.0669 52.0976 26.0669 50.9269C26.0669 49.8013 26.4259 48.8108 27.1886 48.0004C27.9962 47.1899 28.8935 46.7847 30.0151 46.7847C31.3162 46.7847 32.3033 47.325 32.9762 48.3606ZM30.1946 53.7635C30.9573 53.7635 31.6303 53.4933 32.1687 52.953C32.7071 52.4127 32.9762 51.7374 32.9762 50.9269C32.9762 50.1165 32.7071 49.4862 32.1687 48.9459C31.6303 48.4056 30.9573 48.1354 30.1946 48.1354C29.387 48.1354 28.7589 48.4056 28.2205 48.9459C27.6821 49.4862 27.4129 50.1165 27.4129 50.9269C27.4129 51.7374 27.6821 52.4127 28.2205 52.953C28.7589 53.4933 29.387 53.7635 30.1946 53.7635ZM41.2315 46.7847C42.3532 46.7847 43.2953 47.1899 44.0581 48.0004C44.8208 48.8108 45.2246 49.8013 45.2246 50.9269C45.2246 52.0976 44.8208 53.0881 44.0581 53.8535C43.2953 54.664 42.3532 55.0692 41.2315 55.0692C39.9753 55.0692 38.9882 54.5289 38.2704 53.4933V57.9958H36.9244V47.0098H38.2704V48.3606C38.9882 47.325 39.9753 46.7847 41.2315 46.7847ZM41.0969 53.7635C41.8596 53.7635 42.5326 53.4933 43.071 52.953C43.5645 52.4127 43.8337 51.7374 43.8337 50.9269C43.8337 50.1165 43.5645 49.4862 43.071 48.9459C42.5326 48.4056 41.8596 48.1354 41.0969 48.1354C40.2893 48.1354 39.6164 48.4056 39.078 48.9459C38.5396 49.4862 38.2704 50.1165 38.2704 50.9269C38.2704 51.7374 38.5396 52.4127 39.078 52.953C39.6164 53.4933 40.2893 53.7635 41.0969 53.7635ZM48.7241 49.8464H50.6982C51.4609 49.8464 52.089 50.0715 52.6274 50.5217C53.1209 51.017 53.3901 51.6023 53.3901 52.3677C53.3901 53.0881 53.1209 53.7184 52.6274 54.1687C52.089 54.6189 51.4609 54.8441 50.6982 54.8441H47.3781V47.0098H48.7241V49.8464ZM54.422 54.8441V47.0098H55.768V54.8441H54.422ZM48.7241 53.5834H50.6982C51.0571 53.5834 51.416 53.4933 51.6852 53.2232C51.9095 52.9981 52.0441 52.7279 52.0441 52.3677C52.0441 51.9625 51.9095 51.6924 51.6404 51.4672C51.3712 51.1971 51.0571 51.107 50.6982 51.107H48.7241V53.5834ZM69.0482 47.0098V53.5383H70.125V56.9602H68.779V54.8441H62.9016V56.9602H61.5557V53.5383H62.4978C63.0362 52.863 63.2606 51.9175 63.2606 50.6568V47.0098H69.0482ZM64.0681 53.5383H67.7022V48.2705H64.6065V50.6568C64.6065 51.7824 64.4271 52.7729 64.0681 53.5383ZM72.8618 47.0098H78.6495V54.8441H77.3035V48.3155H74.2078V51.5123C74.2078 52.7729 73.9386 53.6734 73.4451 54.2137C72.9515 54.754 72.2337 54.9791 71.2466 54.8441V53.5834C71.785 53.6284 72.1888 53.5383 72.458 53.2232C72.7272 52.908 72.8618 52.3227 72.8618 51.5123V47.0098ZM83.7641 47.0098H87.1291V54.8441H85.7831V52.0525H84.6166L82.4182 54.8441H80.7581L83.0463 51.9625C82.463 51.8274 81.9695 51.5123 81.6106 51.062C81.2517 50.6568 81.0722 50.1165 81.0722 49.5312C81.0722 48.8108 81.3414 48.2255 81.8349 47.7302C82.3733 47.2349 83.0014 47.0098 83.7641 47.0098ZM83.809 50.7919H85.7831V48.2705H83.809C83.4052 48.2705 83.0912 48.4056 82.822 48.6307C82.5528 48.8558 82.4182 49.171 82.4182 49.5312C82.4182 49.9364 82.5528 50.2066 82.822 50.4767C83.0912 50.7018 83.4052 50.7919 83.809 50.7919ZM100.364 47.0098V53.5383H101.441V56.9602H100.095V54.8441H94.2178V56.9602H92.8719V53.5383H93.814C94.3076 52.863 94.5768 51.9175 94.5768 50.6568V47.0098H100.364ZM95.3843 53.5383H99.0185V48.2705H95.9227V50.6568C95.9227 51.7824 95.7433 52.7729 95.3843 53.5383ZM110.639 51.5573H104.088C104.223 52.2326 104.537 52.818 105.03 53.1782C105.524 53.5834 106.152 53.7635 106.915 53.7635C107.947 53.7635 108.709 53.4033 109.158 52.6379L110.325 53.3132C109.562 54.4839 108.395 55.0692 106.87 55.0692C105.659 55.0692 104.627 54.664 103.864 53.8985C103.056 53.0881 102.697 52.0976 102.697 50.9269C102.697 49.7563 103.056 48.7658 103.819 48.0004C104.582 47.1899 105.569 46.7847 106.78 46.7847C107.947 46.7847 108.889 47.1899 109.607 48.0454C110.325 48.8108 110.684 49.8013 110.684 50.972C110.684 51.1521 110.684 51.3322 110.639 51.5573ZM106.78 48.0904C106.062 48.0904 105.479 48.3155 104.986 48.7207C104.492 49.126 104.178 49.6663 104.088 50.3866H109.293C109.203 49.6663 108.889 49.0809 108.44 48.6757C107.992 48.2705 107.453 48.0904 106.78 48.0904ZM111.581 47.0098H118.311V48.3155H115.619V54.8441H114.273V48.3155H111.581V47.0098ZM127.239 51.5573H120.644C120.778 52.2326 121.092 52.818 121.631 53.1782C122.124 53.5834 122.752 53.7635 123.47 53.7635C124.502 53.7635 125.265 53.4033 125.758 52.6379L126.925 53.3132C126.117 54.4839 124.996 55.0692 123.47 55.0692C122.214 55.0692 121.227 54.664 120.419 53.8985C119.657 53.0881 119.253 52.0976 119.253 50.9269C119.253 49.7563 119.657 48.7658 120.419 48.0004C121.182 47.1899 122.169 46.7847 123.381 46.7847C124.502 46.7847 125.444 47.1899 126.162 48.0454C126.88 48.8108 127.284 49.8013 127.284 50.972C127.284 51.1521 127.239 51.3322 127.239 51.5573ZM123.381 48.0904C122.663 48.0904 122.035 48.3155 121.541 48.7207C121.047 49.126 120.778 49.6663 120.644 50.3866H125.893C125.758 49.6663 125.489 49.0809 125.041 48.6757C124.547 48.2705 124.009 48.0904 123.381 48.0904ZM134.866 45.8392H130.649V44.6235H134.866V45.8392ZM130.694 52.5028L135.046 47.0098H136.122V54.8441H134.776V49.3511L130.469 54.8441H129.348V47.0098H130.694V52.5028ZM149.268 53.8535C148.46 54.664 147.473 55.0692 146.352 55.0692C145.185 55.0692 144.198 54.664 143.391 53.8535C142.628 53.0881 142.224 52.0976 142.224 50.9269C142.224 49.7563 142.628 48.8108 143.391 48.0004C144.198 47.1899 145.185 46.7847 146.352 46.7847C147.473 46.7847 148.46 47.1899 149.268 48.0004C150.076 48.8108 150.479 49.8013 150.479 50.9269C150.479 52.0976 150.076 53.0881 149.268 53.8535ZM146.352 53.7184C147.114 53.7184 147.787 53.4483 148.326 52.908C148.819 52.4127 149.089 51.7374 149.089 50.9269C149.089 50.1165 148.819 49.4862 148.326 48.9459C147.787 48.4056 147.114 48.1354 146.352 48.1354C145.544 48.1354 144.916 48.4056 144.378 48.9459C143.839 49.4862 143.57 50.1165 143.57 50.9269C143.57 51.7374 143.839 52.4127 144.378 52.908C144.916 53.4483 145.544 53.7184 146.352 53.7184ZM152.588 47.0098H159.408V54.8441H158.017V48.3155H153.979V54.8441H152.588V47.0098ZM161.113 47.0098H167.797V48.3155H165.15V54.8441H163.804V48.3155H161.113V47.0098ZM175.828 53.8535C175.021 54.664 174.079 55.0692 172.912 55.0692C171.746 55.0692 170.759 54.664 169.951 53.8535C169.188 53.0881 168.785 52.0976 168.785 50.9269C168.785 49.7563 169.188 48.8108 169.951 48.0004C170.759 47.1899 171.746 46.7847 172.912 46.7847C174.079 46.7847 175.021 47.1899 175.828 48.0004C176.636 48.8108 177.04 49.8013 177.04 50.9269C177.04 52.0976 176.636 53.0881 175.828 53.8535ZM172.912 53.7184C173.675 53.7184 174.348 53.4483 174.886 52.908C175.425 52.4127 175.649 51.7374 175.649 50.9269C175.649 50.1165 175.425 49.4862 174.886 48.9459C174.348 48.4056 173.675 48.1354 172.912 48.1354C172.105 48.1354 171.476 48.4056 170.938 48.9459C170.4 49.4862 170.13 50.1165 170.13 50.9269C170.13 51.7374 170.4 52.4127 170.938 52.908C171.476 53.4483 172.105 53.7184 172.912 53.7184ZM185.564 47.0098H187V54.8441H185.654V49.171L183.186 53.1782H183.007L180.539 49.171V54.8441H179.193V47.0098H180.629L183.097 50.972L185.564 47.0098Z" fill="white"/>
</g>
</g>
<defs>
<clipPath id="clip0_0_1561">
<rect width="187" height="58" fill="white"/>
</clipPath>
<clipPath id="clip1_0_1561">
<rect width="187" height="58" fill="white"/>
</clipPath>
</defs>
</svg>
